<?xml version="1.0" standalone="no"?>
<!DOCTYPE svg PUBLIC "-//W3C//DTD SVG 20010904//EN"
 "http://www.w3.org/TR/2001/REC-SVG-20010904/DTD/svg10.dtd">
<svg version="1.0" xmlns="http://www.w3.org/2000/svg"
 width="343.000000pt" height="222.000000pt" viewBox="0 0 343.000000 222.000000"
 preserveAspectRatio="xMidYMid meet">

<g transform="translate(0.000000,222.000000) scale(0.100000,-0.100000)"
fill="#000000" stroke="none">
<path d="M1359 2184 c-15 -7 -34 -24 -43 -38 -18 -28 -22 -50 -5 -26 9 12 10
12 5 -3 -3 -10 -6 -24 -6 -30 0 -8 -3 -8 -9 1 -5 9 -15 -2 -32 -38 -18 -38
-25 -46 -30 -33 -5 13 -10 6 -19 -27 -11 -40 -9 -77 6 -150 4 -20 3 -22 -5
-10 -9 13 -11 12 -11 -3 0 -23 26 -74 56 -110 14 -16 24 -42 24 -60 1 -18 7
-49 15 -71 12 -35 12 -42 -6 -75 -25 -47 -24 -76 6 -136 13 -27 25 -59 25 -70
0 -11 7 -31 16 -44 16 -22 16 -22 -16 -18 -37 6 -86 39 -150 100 -58 56 -99
103 -81 92 10 -5 12 -4 7 4 -4 6 -22 19 -39 29 -29 15 -69 17 -392 17 -267 0
-366 -3 -382 -12 -30 -18 -115 -163 -159 -273 -35 -88 -37 -95 -30 -173 3 -45
9 -92 12 -104 6 -23 49 -43 92 -43 16 0 39 -16 71 -50 l47 -50 71 0 c72 0 106
15 141 62 12 16 31 18 160 18 81 0 258 -3 395 -7 201 -5 247 -9 247 -20 0 -26
32 -78 78 -125 l45 -47 -20 -62 c-12 -35 -19 -69 -16 -76 6 -14 65 -33 106
-33 l28 0 -3 -72 -3 -73 -39 3 c-38 4 -39 3 -33 -25 10 -51 -4 -60 -63 -39
-28 10 -54 16 -57 12 -4 -3 0 -6 7 -6 8 0 34 -10 58 -22 l45 -21 -39 -20 c-30
-16 -55 -20 -108 -18 -82 2 -121 22 -105 53 6 10 20 23 32 28 13 5 16 9 7 9
-39 2 -109 -104 -94 -143 16 -41 147 -53 299 -28 126 21 130 23 128 57 -2 17
-4 58 -4 93 -1 34 -5 62 -10 62 -5 0 -9 34 -9 76 l0 76 25 -6 c70 -18 116 -18
159 -2 70 27 73 36 41 109 -20 44 -29 81 -30 127 -2 36 -8 78 -14 93 -22 56
-7 74 31 40 19 -17 20 -16 37 5 l17 23 34 -36 c42 -43 68 -41 150 13 42 27 64
35 91 33 40 -3 69 18 69 49 0 10 5 22 11 25 16 10 1 107 -19 123 -9 6 -28 12
-44 12 -20 0 -28 5 -28 18 0 35 -30 63 -62 60 l-31 -3 -2 -85 c-2 -93 -14
-127 -62 -173 -29 -27 -30 -27 -48 -7 -17 19 -17 21 -2 38 16 17 15 20 -3 40
-11 12 -20 28 -20 37 0 19 -26 71 -52 104 l-18 24 37 21 c21 12 47 36 58 53
15 24 28 32 48 33 53 0 92 33 111 93 3 10 15 17 29 17 37 0 53 24 38 57 -11
24 -15 25 -57 19 -44 -6 -44 -6 -38 22 4 15 15 47 26 72 11 25 22 66 25 92 6
49 -3 102 -15 94 -5 -3 -14 5 -22 17 -12 20 -12 21 3 8 10 -7 17 -10 17 -7 0
4 10 2 21 -5 20 -10 21 -9 17 12 -3 13 -9 33 -13 43 -7 15 -5 18 6 12 8 -4 3
2 -11 13 -21 18 -23 22 -10 31 8 5 25 10 38 10 13 0 20 4 17 10 -9 14 -72 2
-113 -21 -42 -24 -42 -24 -42 11 0 17 -7 47 -15 67 -19 45 -19 52 1 27 15 -19
15 -19 5 1 -5 11 -19 29 -32 40 l-22 20 7 -42 c6 -40 -1 -53 -18 -35 -4 4 -11
7 -14 7 -10 0 -82 46 -82 52 0 3 7 2 16 -1 9 -3 12 -2 9 5 -4 6 -13 8 -21 5
-8 -3 -14 -1 -14 4 0 6 -4 10 -10 10 -5 0 0 -16 11 -35 12 -19 18 -35 13 -35
-16 0 -121 64 -167 102 l-47 39 -12 -28 c-6 -15 -10 -32 -9 -38 2 -5 -9 1 -23
14 -14 14 -26 29 -26 34 0 5 9 -1 20 -14 19 -23 19 -22 -1 14 -24 42 -35 46
-44 17 -3 -11 -10 -20 -14 -20 -12 0 -48 42 -73 86 -23 40 -24 41 -49 28z
m598 -430 c-3 -3 -12 -4 -19 -1 -8 3 -5 6 6 6 11 1 17 -2 13 -5z m-522 -28
c88 -40 155 -42 379 -9 35 5 38 3 31 -13 -26 -62 -16 -131 26 -173 16 -16 32
-44 36 -61 l6 -31 -39 7 c-21 4 -40 10 -42 13 -31 78 -72 113 -135 113 -53 1
-91 -20 -115 -63 -22 -37 -45 -37 -59 1 -22 58 -108 85 -177 55 -18 -8 -19 -5
-13 43 7 56 42 146 54 140 5 -2 26 -12 48 -22z m632 -38 c-3 -8 -6 -5 -6 6 -1
11 2 17 5 13 3 -3 4 -12 1 -19z m-609 -164 c12 -8 27 -25 33 -37 9 -18 9 -20
-2 -9 -19 18 -36 15 -42 -8 -3 -12 -14 -20 -26 -20 -12 0 -21 -4 -21 -10 0
-17 39 -50 58 -49 16 1 16 2 -1 6 -25 6 -16 27 13 31 21 3 22 2 11 -12 -7 -9
-10 -16 -5 -16 5 0 0 -7 -10 -15 -27 -20 -89 -19 -115 3 -12 9 -24 34 -28 54
-5 32 -1 41 25 68 34 34 74 39 110 14z m309 -29 c78 -90 -60 -205 -139 -115
-31 34 -35 67 -13 110 18 36 29 40 85 36 33 -3 50 -11 67 -31z m-848 -25 l115
-9 79 -80 c43 -43 75 -81 70 -83 -4 -3 -39 30 -78 72 -56 61 -77 78 -105 82
-61 9 -400 8 -515 -2 -140 -12 -151 -20 -188 -130 -15 -46 -25 -85 -23 -87 4
-4 379 -24 382 -20 1 1 8 51 16 111 7 60 18 111 24 113 7 2 8 -18 3 -64 -8
-70 -10 -225 -2 -186 5 23 29 25 348 24 214 -1 194 3 210 -33 8 -18 14 -26 14
-18 0 8 -6 26 -14 40 -8 14 -14 33 -15 42 0 16 3 16 33 -2 17 -11 46 -20 62
-20 17 0 47 -12 68 -26 21 -14 56 -34 79 -44 l40 -18 -33 -7 c-82 -17 -128
-72 -144 -171 -6 -40 -7 -41 -43 -40 -36 1 -37 1 -35 36 l3 35 -10 -31 -10
-31 -97 -6 c-54 -4 -178 -7 -275 -7 -207 0 -186 -15 -191 140 -3 75 -3 71 -3
-23 1 -71 -3 -118 -9 -118 -5 -1 -23 -1 -39 0 -16 1 -33 -4 -38 -11 -4 -8 -8
5 -8 31 0 136 -136 226 -265 177 -54 -21 -104 -87 -112 -147 -5 -35 -8 -39
-27 -33 -50 15 -61 39 -61 132 0 54 5 94 13 107 13 19 13 19 7 -2 -10 -35 17
-29 39 8 15 25 16 33 5 39 -7 5 -17 6 -23 3 -15 -10 0 24 60 129 30 54 65 103
77 110 13 7 91 14 192 18 268 10 303 10 424 0z m179 -126 c46 -47 82 -90 79
-97 -3 -9 -64 -13 -236 -15 l-232 -2 7 97 c3 54 8 101 10 105 2 3 68 4 147 1
l142 -5 83 -84z m-442 29 c-4 -32 -9 -77 -12 -99 l-6 -42 -166 5 c-92 3 -169
7 -171 9 -8 7 25 110 44 139 25 37 50 42 204 44 l113 1 -6 -57z m1372 35 c21
-21 14 -77 -12 -103 -30 -30 -71 -41 -91 -25 -12 10 -15 9 -15 -4 0 -29 -69
-94 -118 -111 -73 -26 -227 -31 -292 -10 -67 22 -160 108 -160 147 0 24 2 25
48 20 59 -5 106 16 130 59 22 38 34 37 63 -8 13 -21 41 -46 62 -57 34 -16 44
-17 80 -6 23 7 55 27 72 45 29 32 31 33 79 24 44 -8 51 -6 80 16 34 27 56 31
74 13z m-802 -143 c6 -16 -12 -45 -27 -45 -5 0 -9 14 -9 30 0 32 26 43 36 15z
m856 -119 c11 -26 10 -31 -22 -83 -14 -24 -16 -33 -6 -33 9 0 13 -16 15 -51 2
-63 5 -69 39 -68 l27 1 -25 7 c-15 4 -26 15 -28 29 -3 18 1 22 26 22 43 0 62
-9 62 -30 0 -38 -47 -49 -120 -28 -8 3 -12 3 -7 1 4 -3 7 -9 7 -14 0 -13 -71
-58 -109 -69 -30 -8 -36 -6 -62 23 -19 21 -27 38 -23 52 4 15 -1 13 -20 -10
-14 -16 -26 -33 -26 -37 0 -5 -4 -8 -10 -8 -5 0 -10 3 -10 8 0 12 99 117 105
111 3 -3 -4 -14 -14 -23 -20 -18 -20 -18 8 -42 16 -13 31 -24 35 -24 3 0 24
25 47 55 41 54 41 56 43 145 l1 90 28 0 c19 0 31 -7 39 -24z m-303 -18 c11
-11 12 -10 6 1 -6 10 -4 12 4 7 7 -5 10 -14 7 -22 -3 -8 0 -13 6 -11 13 3 63
-86 50 -91 -5 -1 -33 9 -63 23 -30 13 -61 25 -70 25 -22 0 -65 48 -53 59 8 8
36 15 85 20 8 0 21 -5 28 -11z m-129 -16 c0 -11 -11 -24 -25 -30 -35 -16 -35
-16 -35 18 0 27 3 30 30 30 22 0 30 -5 30 -18z m514 -28 c25 -10 20 -44 -6
-45 -21 -1 -20 -2 5 -11 20 -7 27 -16 27 -35 0 -21 -4 -24 -22 -19 -13 3 -38
6 -55 6 -26 0 -33 4 -33 20 0 10 8 24 18 29 16 10 16 10 0 11 -21 0 -30 14
-22 34 6 16 57 22 88 10z m-1705 -48 c15 -8 35 -33 45 -54 15 -33 16 -46 7
-75 -19 -55 -54 -82 -111 -82 -55 0 -84 20 -107 73 -39 94 72 186 166 138z
m981 -68 c19 -13 36 -30 38 -38 4 -11 -2 -9 -18 5 -12 11 -24 19 -26 17 -6 -4
-44 22 -44 30 0 14 16 9 50 -14z m440 14 c0 -11 -41 -49 -46 -42 -2 3 -15 -10
-29 -29 -29 -41 -34 -30 -5 14 29 44 80 80 80 57z m-455 -52 c16 -16 35 -30
42 -30 8 0 11 -5 8 -10 -5 -8 -11 -7 -21 1 -17 14 -19 -2 -1 -21 10 -12 9 -12
-4 -2 -13 10 -19 8 -34 -9 -19 -20 -18 -20 7 -42 21 -17 28 -34 33 -82 l7 -60
-26 24 c-38 35 -86 114 -86 140 0 12 15 35 36 53 l36 32 -22 18 c-12 10 -18
18 -13 18 5 0 22 -13 38 -30z m169 -41 c-1 -63 -12 -86 -38 -76 -21 8 -21 56
0 85 9 13 14 29 11 35 -3 7 3 13 12 14 13 1 16 -9 15 -58z m4 -166 c33 -3 64
1 105 14 60 21 74 15 31 -13 -16 -11 -54 -19 -103 -22 -63 -4 -86 -1 -124 16
-26 12 -47 28 -47 36 0 12 7 12 45 -5 25 -11 66 -22 93 -26z m137 -111 c19
-59 15 -82 -12 -78 -38 5 -74 137 -40 149 18 7 33 -13 52 -71z"/>
<path d="M1375 1637 c-46 -46 -45 -64 2 -32 26 17 51 25 81 25 36 0 43 3 40
18 -2 12 -15 18 -46 20 -38 3 -47 -1 -77 -31z"/>
<path d="M1607 1663 c-17 -17 -3 -32 36 -38 56 -9 106 -31 134 -57 32 -30 30
-4 -3 40 -15 19 -42 40 -60 48 -35 15 -96 19 -107 7z"/>
<path d="M1692 1460 c-7 -11 -19 -20 -27 -20 -21 0 -19 -24 4 -44 40 -36 96
19 64 63 -18 26 -25 26 -41 1z m38 -41 c0 -5 -9 -13 -19 -18 -14 -8 -22 -7
-31 4 -11 13 -10 14 4 9 9 -3 16 -2 16 3 0 5 7 10 15 10 8 0 15 -4 15 -8z"/>
<path d="M730 1190 c0 -5 7 -7 15 -4 8 4 15 8 15 10 0 2 -7 4 -15 4 -8 0 -15
-4 -15 -10z"/>
<path d="M820 1190 c11 -7 3 -10 -30 -11 -32 -2 -37 -3 -16 -6 36 -6 79 5 71
17 -3 6 -14 10 -23 10 -15 0 -15 -2 -2 -10z"/>
<path d="M1367 1163 c-14 -13 -6 -23 17 -23 30 0 42 15 20 24 -20 8 -29 8 -37
-1z"/>
<path d="M1273 1065 c0 -44 2 -61 4 -37 2 23 2 59 0 80 -2 20 -4 1 -4 -43z"/>
<path d="M1961 1359 c-17 -10 -31 -24 -31 -30 0 -8 5 -7 16 2 15 12 16 11 9
-10 -5 -16 -4 -21 4 -17 6 4 11 19 11 33 0 22 4 25 25 21 26 -5 35 6 11 15 -7
3 -27 -3 -45 -14z"/>
<path d="M1708 1255 c-2 -2 -29 -11 -59 -19 -29 -8 -44 -15 -33 -15 12 -1 40
5 62 13 31 11 42 12 46 3 3 -9 5 -9 5 0 1 13 -13 25 -21 18z"/>
<path d="M1480 1232 c0 -4 14 -9 32 -10 37 -3 35 2 -4 12 -16 3 -28 3 -28 -2z"/>
<path d="M1558 1213 c6 -2 18 -2 25 0 6 3 1 5 -13 5 -14 0 -19 -2 -12 -5z"/>
<path d="M1566 1187 c10 -5 24 -5 36 0 17 7 14 9 -16 9 -27 0 -32 -2 -20 -9z"/>
<path d="M1766 1081 c21 -23 44 -22 44 2 0 7 -4 6 -10 -3 -7 -12 -12 -11 -32
5 l-23 19 21 -23z"/>
<path d="M380 1036 c0 -3 5 -17 11 -33 10 -27 11 -27 22 -8 17 28 42 33 27 5
-17 -31 -8 -43 18 -25 31 22 28 39 -11 53 -33 12 -67 16 -67 8z"/>
<path d="M324 1009 c-8 -13 4 -24 34 -34 23 -7 23 -7 7 19 -19 28 -30 32 -41
15z"/>
<path d="M300 940 c0 -27 1 -28 30 -17 17 6 30 14 30 17 0 3 -13 11 -30 17
-29 11 -30 10 -30 -17z"/>
<path d="M391 961 c-17 -11 -11 -43 9 -48 12 -4 13 -3 1 5 -9 6 -11 17 -7 28
7 18 8 18 22 0 8 -11 14 -15 14 -9 0 17 -25 32 -39 24z"/>
<path d="M463 953 c-13 -2 -23 -8 -23 -13 0 -8 34 -20 58 -20 6 0 12 9 12 20
0 20 -5 21 -47 13z"/>
<path d="M341 891 c-13 -10 -21 -23 -17 -30 11 -18 20 -13 39 19 21 34 13 38
-22 11z"/>
<path d="M434 886 c3 -14 2 -27 -4 -31 -5 -3 -12 6 -16 20 -7 30 -18 23 -28
-17 -6 -24 -3 -28 16 -28 13 0 38 10 57 21 l35 21 -25 19 c-33 25 -42 24 -35
-5z"/>
<path d="M1855 1970 c10 -11 20 -20 23 -20 3 0 -3 9 -13 20 -10 11 -20 20 -23
20 -3 0 3 -9 13 -20z"/>
<path d="M1981 1878 c-1 -16 2 -28 7 -28 12 1 47 30 35 30 -7 0 -15 -6 -19
-12 -6 -9 -10 -5 -15 12 l-7 25 -1 -27z"/>
<path d="M2048 1883 c6 -2 18 -2 25 0 6 3 1 5 -13 5 -14 0 -19 -2 -12 -5z"/>
<path d="M2603 1831 c-54 -25 -65 -43 -117 -197 -24 -71 -128 -372 -230 -668
-102 -297 -186 -550 -186 -564 0 -38 29 -90 64 -111 17 -10 161 -58 321 -106
241 -72 297 -86 332 -80 48 7 87 34 108 75 8 16 82 225 165 465 83 240 157
446 164 458 8 12 24 56 36 97 12 41 39 129 61 195 22 66 39 135 39 153 0 43
-23 86 -57 109 -31 22 -596 193 -634 193 -13 0 -43 -9 -66 -19z m156 -36 c6
-3 11 -19 11 -35 0 -40 18 -50 202 -104 164 -49 184 -50 206 -9 9 14 15 15 56
3 57 -16 96 -58 96 -103 -1 -42 -453 -1353 -476 -1378 -9 -10 -34 -24 -54 -29
-33 -9 -69 0 -336 80 -265 79 -302 93 -326 120 -16 17 -28 42 -28 57 0 14 24
96 54 182 30 86 133 386 230 666 202 588 194 572 297 562 32 -3 62 -8 68 -12z"/>
<path d="M2107 1743 c-3 -16 -1 -32 4 -37 5 -6 9 4 9 27 0 44 -6 48 -13 10z"/>
<path d="M1130 1416 c0 -2 8 -10 18 -17 15 -13 16 -12 3 4 -13 16 -21 21 -21
13z"/>
<path d="M1200 1355 c13 -14 26 -25 28 -25 3 0 -5 11 -18 25 -13 14 -26 25
-28 25 -3 0 5 -11 18 -25z"/>
<path d="M1275 1290 c21 -22 41 -40 44 -40 3 0 -13 18 -34 40 -21 22 -41 40
-44 40 -3 0 13 -18 34 -40z"/>
<path d="M1733 405 c0 -22 2 -30 4 -17 2 12 2 30 0 40 -3 9 -5 -1 -4 -23z"/>
<path d="M1675 350 c-2 -3 -5 -47 -7 -98 l-3 -94 90 -24 c193 -51 248 -54 295
-16 20 16 20 19 5 63 -9 26 -28 57 -43 70 l-27 24 23 -26 c22 -25 22 -26 4
-42 -13 -12 -36 -17 -75 -17 -63 0 -104 13 -129 40 -17 18 -17 20 0 30 15 10
14 10 -5 5 -26 -7 -37 9 -35 51 2 31 1 32 -44 36 -25 2 -47 1 -49 -2z"/>
<path d="M1303 303 c9 -2 25 -2 35 0 9 3 1 5 -18 5 -19 0 -27 -2 -17 -5z"/>
<path d="M1883 283 c15 -2 37 -2 50 0 12 2 0 4 -28 4 -27 0 -38 -2 -22 -4z"/>
</g>
</svg>
