<?xml version="1.0" standalone="no"?>
<!DOCTYPE svg PUBLIC "-//W3C//DTD SVG 20010904//EN"
 "http://www.w3.org/TR/2001/REC-SVG-20010904/DTD/svg10.dtd">
<svg version="1.0" xmlns="http://www.w3.org/2000/svg"
 width="296.000000pt" height="583.000000pt" viewBox="0 0 296.000000 583.000000"
 preserveAspectRatio="xMidYMid meet">

<g transform="translate(0.000000,583.000000) scale(0.100000,-0.100000)"
fill="#000000" stroke="none">
<path d="M1590 5096 c0 -23 4 -26 36 -26 31 0 35 3 32 23 -2 17 -11 23 -35 25
-30 3 -33 1 -33 -22z"/>
<path d="M1450 5091 c0 -11 -9 -21 -22 -25 -38 -10 -48 -7 -48 14 0 28 -60 29
-67 1 -4 -18 -30 -31 -60 -31 -7 0 -13 10 -13 21 0 17 -4 20 -22 15 -13 -3
-26 -6 -30 -6 -5 0 -8 -8 -8 -18 0 -15 6 -18 30 -14 28 4 30 2 30 -27 0 -29 3
-31 34 -31 32 0 35 -3 38 -32 3 -31 5 -33 36 -30 30 3 32 1 32 -26 0 -30 -14
-42 -51 -42 -14 0 -19 7 -19 30 0 28 -3 30 -35 30 -32 0 -35 -2 -35 -30 0 -28
3 -30 35 -30 33 0 35 -2 35 -35 0 -28 4 -35 19 -35 38 0 51 11 51 46 0 32 2
34 35 34 33 0 35 -2 35 -35 0 -33 2 -35 35 -35 27 0 35 4 35 18 0 23 -30 52
-53 52 -12 0 -17 9 -17 30 0 17 5 30 10 30 6 0 10 16 10 35 0 19 -4 35 -10 35
-5 0 -10 16 -10 35 0 33 2 35 35 35 28 0 35 4 35 20 0 16 -7 20 -35 20 -28 0
-35 -4 -35 -19z m-70 -60 c0 -29 -14 -41 -51 -41 -15 0 -19 7 -19 35 0 33 2
35 35 35 32 0 35 -3 35 -29z m70 -66 c0 -33 -2 -35 -35 -35 -33 0 -35 2 -35
35 0 33 2 35 35 35 33 0 35 -2 35 -35z"/>
<path d="M1730 5085 c0 -22 -4 -25 -35 -25 -32 0 -35 -2 -35 -30 0 -16 -4 -30
-10 -30 -5 0 -10 -16 -10 -35 0 -19 5 -35 10 -35 6 0 10 -13 10 -30 0 -22 -5
-30 -18 -30 -23 0 -52 -30 -52 -53 0 -13 9 -17 35 -17 33 0 35 2 35 35 0 33 2
35 35 35 34 0 35 -1 35 -40 0 -39 1 -40 35 -40 33 0 35 2 35 35 0 33 2 35 35
35 31 0 35 3 35 25 0 26 9 29 47 19 14 -4 23 -15 25 -33 2 -21 9 -27 36 -29
28 -3 32 0 32 21 0 20 -6 26 -35 31 -33 7 -35 9 -35 46 0 39 -1 40 -35 40 -33
0 -35 -2 -35 -35 0 -36 -6 -40 -47 -29 -18 5 -23 14 -23 40 0 32 2 34 35 34
32 0 35 2 35 30 0 28 -3 30 -35 30 -32 0 -35 -2 -35 -30 0 -23 -5 -30 -19 -30
-37 0 -51 12 -51 41 0 26 3 29 35 29 31 0 35 3 35 25 0 22 -4 25 -35 25 -31 0
-35 -3 -35 -25z m0 -125 c0 -39 1 -40 35 -40 32 0 35 -2 35 -30 0 -31 -7 -34
-47 -24 -14 4 -23 15 -25 33 -2 21 -9 27 -35 29 -30 3 -33 6 -33 38 0 32 2 34
35 34 34 0 35 -1 35 -40z"/>
<path d="M1872 5073 c2 -23 8 -29 36 -31 30 -3 32 -1 32 27 0 29 -3 31 -36 31
-33 0 -35 -2 -32 -27z"/>
<path d="M2010 5053 c0 -22 5 -33 14 -33 8 0 21 -3 30 -6 13 -5 16 1 16 29 0
31 -3 35 -30 39 -28 4 -30 3 -30 -29z"/>
<path d="M1068 5062 c-20 -2 -28 -9 -28 -23 0 -18 4 -20 30 -14 28 6 30 5 30
-25 0 -29 2 -31 33 -28 28 3 32 7 35 37 3 33 3 33 -32 27 -28 -5 -35 -3 -38
11 -2 13 -10 17 -30 15z"/>
<path d="M2150 5026 c0 -24 5 -36 14 -36 8 0 21 -3 30 -6 13 -5 16 1 16 30 0
24 -5 36 -14 36 -8 0 -21 3 -30 6 -13 5 -16 -1 -16 -30z"/>
<path d="M923 5033 c-15 -3 -23 -12 -23 -24 0 -17 5 -19 36 -13 34 6 35 6 31
-22 -3 -27 -14 -37 -49 -48 -13 -4 -18 -16 -18 -40 0 -31 -4 -36 -35 -46 -27
-9 -35 -17 -35 -36 0 -23 3 -24 35 -18 35 6 35 6 35 -31 0 -30 3 -36 16 -31 9
3 22 6 30 6 10 0 14 12 14 38 0 37 -1 38 -30 34 -27 -4 -30 -1 -30 21 0 25 16
37 51 37 14 0 19 -7 19 -26 0 -20 4 -25 16 -20 9 3 24 6 34 6 14 0 20 9 22 33
2 27 8 33 31 35 23 3 27 0 27 -23 0 -24 3 -26 33 -23 27 2 33 8 35 31 3 25 1
27 -32 27 -33 0 -36 2 -36 31 0 27 -3 30 -27 27 -24 -3 -28 -8 -31 -39 -3 -32
-7 -38 -34 -43 -47 -9 -48 -8 -48 29 0 33 2 35 40 41 35 6 40 10 40 34 0 36
-6 40 -42 29 -26 -7 -31 -5 -35 11 -3 11 -8 19 -12 19 -3 -1 -16 -4 -28 -6z"/>
<path d="M1942 5003 c2 -24 8 -28 36 -31 31 -3 33 -2 30 25 -2 24 -8 28 -36
31 -31 3 -33 2 -30 -25z"/>
<path d="M2290 4991 c0 -31 -1 -31 -40 -25 -38 6 -40 5 -40 -18 0 -19 7 -27
35 -35 36 -11 40 -8 35 26 -1 10 7 12 34 7 36 -7 36 -7 36 29 0 23 -5 35 -14
35 -8 0 -21 3 -30 6 -13 5 -16 -1 -16 -25z"/>
<path d="M2080 4981 c0 -26 4 -31 34 -37 32 -6 35 -9 38 -47 3 -35 7 -42 28
-47 17 -4 26 -14 28 -31 2 -20 11 -29 38 -37 38 -11 45 -7 34 24 -5 13 -21 24
-39 27 -28 6 -31 10 -31 46 0 34 -4 40 -30 50 -23 7 -30 16 -30 35 0 28 -3 30
-42 40 -26 6 -28 4 -28 -23z"/>
<path d="M778 4993 c-10 -2 -18 -13 -18 -24 0 -17 5 -19 35 -13 33 6 35 5 35
-21 0 -23 3 -26 23 -21 12 3 28 6 35 6 7 0 12 13 12 31 0 30 -1 31 -40 24 -34
-6 -39 -4 -34 9 6 16 -10 19 -48 9z"/>
<path d="M1180 4944 c0 -33 2 -35 28 -32 22 2 28 8 30 36 3 30 1 32 -27 32
-29 0 -31 -3 -31 -36z"/>
<path d="M653 4958 c-26 -9 -33 -16 -33 -38 0 -20 -8 -30 -35 -43 -23 -11 -35
-24 -35 -37 0 -13 -12 -25 -35 -34 -33 -14 -35 -18 -35 -62 0 -49 2 -50 53
-29 12 5 17 2 17 -9 0 -9 -15 -22 -33 -29 -31 -13 -33 -18 -45 -93 -6 -44 -12
-93 -12 -110 0 -52 28 -194 54 -274 24 -76 84 -231 92 -239 3 -3 2 51 -2 120
-9 159 -1 210 37 253 l29 33 -38 26 c-68 45 -142 131 -142 163 0 6 14 17 30
24 28 11 30 16 30 61 0 44 3 51 26 59 40 16 44 13 44 -30 0 -22 2 -40 4 -40 1
0 17 5 35 11 28 10 31 15 31 51 l0 40 -35 -6 c-29 -6 -35 -4 -35 10 0 16 -11
16 -52 -1 -16 -6 -18 -1 -18 39 0 41 3 48 26 56 40 16 44 13 44 -31 0 -35 3
-40 18 -34 9 4 25 10 35 12 12 4 17 16 17 45 l0 40 -35 -6 c-31 -6 -35 -4 -35
14 0 15 11 26 35 36 27 11 35 20 35 39 0 14 -1 25 -2 24 -2 -1 -18 -6 -35 -11z"/>
<path d="M2420 4941 c0 -24 6 -31 31 -40 41 -14 39 -15 39 17 0 21 -7 32 -25
40 -38 18 -45 15 -45 -17z"/>
<path d="M2010 4927 c0 -34 12 -47 46 -47 11 0 14 10 12 38 -3 32 -7 37 -30
40 -26 3 -28 1 -28 -31z"/>
<path d="M713 4928 c-14 -7 -23 -20 -23 -35 0 -20 3 -23 28 -17 39 10 42 12
42 40 0 26 -12 29 -47 12z"/>
<path d="M2350 4906 c0 -18 8 -27 31 -35 41 -14 39 -15 39 14 0 18 -7 28 -26
35 -37 15 -44 13 -44 -14z"/>
<path d="M508 4908 c-23 -8 -28 -16 -28 -45 0 -19 3 -33 8 -31 58 28 62 32 62
60 0 31 -2 31 -42 16z"/>
<path d="M2560 4886 c0 -18 8 -30 30 -41 38 -20 40 -19 40 8 0 22 -7 28 -62
55 -5 2 -8 -8 -8 -22z"/>
<path d="M778 4893 c-13 -3 -18 -15 -18 -44 0 -35 -3 -40 -35 -53 -24 -10 -35
-21 -35 -36 0 -17 4 -19 28 -14 39 10 42 12 42 39 0 18 8 26 35 35 31 10 35
16 35 46 0 35 -8 39 -52 27z"/>
<path d="M2290 4860 c0 -33 4 -39 30 -49 22 -7 30 -16 30 -35 0 -18 8 -27 31
-35 41 -14 39 -14 39 9 0 23 8 24 44 10 18 -6 26 -17 26 -33 0 -17 10 -28 35
-40 31 -15 35 -21 35 -57 0 -36 3 -41 36 -55 l36 -15 -23 -37 c-30 -52 -97
-112 -171 -156 -34 -20 -66 -38 -70 -39 -5 -2 11 -46 35 -98 24 -52 59 -134
78 -182 19 -49 37 -88 40 -88 16 0 61 136 90 270 21 96 37 337 26 382 -4 14
-20 31 -42 41 -27 13 -35 23 -35 42 0 20 -8 29 -35 41 -32 13 -35 18 -35 54 0
34 -4 42 -26 50 -39 15 -44 13 -44 -25 0 -37 -5 -40 -44 -25 -20 7 -25 17 -28
51 -3 37 -7 44 -30 50 -27 7 -28 6 -28 -31z"/>
<path d="M2490 4855 c0 -19 8 -28 35 -39 31 -13 35 -19 35 -54 0 -34 4 -40 35
-55 l35 -17 0 38 c0 34 -4 40 -35 55 -28 13 -35 22 -35 45 0 21 -7 32 -25 40
-37 17 -45 15 -45 -13z"/>
<path d="M2080 4845 c0 -20 6 -25 35 -31 34 -6 35 -8 35 -49 0 -40 2 -43 30
-47 31 -5 31 -4 28 36 -3 34 -7 41 -28 46 -18 4 -26 14 -28 32 -2 17 -11 28
-25 32 -38 10 -47 7 -47 -19z"/>
<path d="M1180 4815 c0 -32 2 -35 30 -35 28 0 30 3 30 35 0 32 -2 35 -30 35
-28 0 -30 -3 -30 -35z"/>
<path d="M1870 4816 c0 -26 5 -35 23 -40 42 -11 47 -7 47 34 0 39 -1 40 -35
40 -33 0 -35 -2 -35 -34z"/>
<path d="M1047 4823 c-4 -3 -7 -22 -7 -41 0 -27 3 -33 16 -28 9 3 22 6 30 6 9
0 14 11 14 35 0 30 -3 35 -23 35 -13 0 -27 -3 -30 -7z"/>
<path d="M2010 4791 c0 -39 1 -41 31 -41 29 0 30 2 27 38 -3 32 -7 37 -30 40
-27 3 -28 1 -28 -37z"/>
<path d="M778 4763 c-13 -3 -18 -15 -18 -44 0 -38 1 -39 28 -33 40 10 42 12
42 50 0 35 -8 39 -52 27z"/>
<path d="M2290 4730 c0 -34 4 -42 26 -50 35 -14 34 -15 34 30 0 34 -4 42 -26
50 -35 14 -34 15 -34 -30z"/>
<path d="M2420 4693 c0 -36 9 -49 43 -62 27 -10 27 -10 27 29 0 34 -4 42 -26
50 -38 15 -44 13 -44 -17z"/>
<path d="M1035 4140 c-27 -30 -25 -88 4 -111 30 -24 36 -24 61 3 26 28 26 82
0 108 -25 25 -42 25 -65 0z"/>
<path d="M1970 4140 c-26 -26 -26 -80 0 -108 25 -27 31 -27 61 -3 29 23 31 81
4 111 -23 25 -40 25 -65 0z"/>
<path d="M1505 3016 l-39 -33 19 -42 c18 -42 18 -44 -14 -369 -18 -180 -35
-354 -38 -387 -5 -55 -3 -64 21 -92 15 -18 43 -42 62 -53 30 -19 39 -21 64
-10 46 19 100 84 100 122 0 43 -59 698 -65 726 -3 12 2 33 11 46 24 38 15 77
-25 103 -44 30 -50 29 -96 -11z"/>
<path d="M1860 2780 c0 -5 5 -10 10 -10 6 0 11 -19 12 -42 l1 -43 4 40 c3 22
9 45 15 52 8 10 4 13 -16 13 -14 0 -26 -4 -26 -10z"/>
<path d="M1916 2759 c-3 -17 -6 -41 -6 -53 0 -18 2 -19 11 -6 8 11 12 12 16 3
7 -19 34 -16 49 5 13 16 13 16 14 0 0 -10 3 -18 8 -18 4 0 7 23 7 50 0 28 -3
50 -7 50 -5 0 -8 -8 -8 -17 0 -15 -2 -14 -16 3 -15 18 -15 18 -9 -9 3 -16 3
-38 -1 -50 -7 -22 -7 -22 -15 -2 -4 11 -8 32 -8 48 -1 38 -27 35 -35 -4z m21
-31 c-3 -7 -5 -2 -5 12 0 14 2 19 5 13 2 -7 2 -19 0 -25z"/>
<path d="M2030 2740 c0 -27 4 -50 9 -50 5 0 8 23 8 50 -1 28 -5 50 -9 50 -4 0
-8 -22 -8 -50z"/>
<path d="M1860 2654 c0 -3 7 -12 15 -20 13 -14 17 -14 31 1 9 9 13 19 10 23
-4 3 -12 0 -17 -8 -8 -11 -12 -12 -16 -2 -5 12 -23 17 -23 6z"/>
<path d="M1950 2654 c0 -3 7 -13 16 -21 13 -14 17 -14 25 -2 8 12 10 12 18 0
8 -12 12 -12 26 3 10 9 14 20 11 24 -4 3 -11 0 -17 -8 -8 -13 -10 -13 -19 0
-9 13 -11 13 -21 0 -8 -11 -12 -12 -16 -2 -5 12 -23 17 -23 6z"/>
<path d="M1925 2630 c-3 -5 1 -10 10 -10 9 0 13 5 10 10 -3 6 -8 10 -10 10 -2
0 -7 -4 -10 -10z"/>
<path d="M1490 1777 c-21 -10 -26 -21 -28 -61 -4 -58 7 -73 61 -81 58 -9 121
13 125 43 3 17 -2 22 -17 22 -12 0 -21 4 -21 10 0 5 6 7 14 4 18 -7 29 11 21
35 -12 38 -103 54 -155 28z"/>
<path d="M830 1710 l0 -70 291 0 292 0 -6 34 c-3 19 -2 50 3 70 l8 36 -294 0
-294 0 0 -70z"/>
<path d="M1699 1748 c4 -18 6 -50 3 -70 l-4 -38 296 0 296 0 0 70 0 70 -299 0
-299 0 7 -32z"/>
<path d="M1046 407 c-64 -61 -82 -135 -46 -195 23 -37 62 -56 100 -47 73 16
293 120 346 164 56 44 88 86 79 102 -3 4 -103 7 -224 8 l-219 2 -36 -34z"/>
<path d="M1586 432 c-10 -16 33 -70 87 -111 71 -54 317 -161 368 -161 10 0 33
13 50 28 60 54 46 161 -31 225 l-30 26 -219 1 c-121 0 -222 -3 -225 -8z"/>
</g>
</svg>
